# xmcd CD database file generated by Grip 3.2.0
# 
# Track frame offsets:
#       180
#       26667
#       58955
#       83100
#       96557
#       114755
#       142682
#       157075
# 
# Disc length: 2310 seconds
# 
# Revision: 2
# Processed by: cddbd v1.5.1PL0 Copyright (c) Steve Scherf et al.
# Submitted via: Grip 3.2.0
# 
DISCID=64090408
DTITLE=Guy Cabay - Del pire al toele, les mizeres del Catedråle
DYEAR=2000
DGENRE=Blues
TTITLE0=Leyîz l' la
TTITLE1=Li Clokî d' Sint Lambiet
TTITLE2=Un jour j'ai fait tourner les tables
TTITLE3=Li Veye ki broûle
TTITLE4=La Cathédrale au cinéma
TTITLE5=Salve sancta parens
TTITLE6=Li Clokî d' Sint Lambiet (rascourti)
TTITLE7=Leyîz l' la (rascourti)
EXTD=
EXTT0=
EXTT1=
EXTT2=
EXTT3=
EXTT4=
EXTT5=
EXTT6=
EXTT7=
PLAYORDER=
